<?xml version="1.0" encoding="UTF-8" standalone="no"?>
<!-- Created with Bouml (http://bouml.free.fr/) -->
<!DOCTYPE svg PUBLIC "-//W3C//DTD SVG 1.1//EN" "http://www.w3.org/Graphics/SVG/1.1/DTD/svg11.dtd">
<svg width="972" height="711" version="1.1" xmlns="http://www.w3.org/2000/svg">
<g>
	<rect fill="none" stroke="black" stroke-width="1" stroke-opacity="1" x="308" y="182" width="207" height="18" />
	<rect fill="none" stroke="black" stroke-width="1" stroke-opacity="1" x="308" y="201" width="521" height="236" />
	<text font-family="Helvetica" font-size="7" fill="#000000" xml:space="preserve" text-anchor="middle" x="569" y="210">API</text>
</g>
<g>
	<rect fill="none" stroke="black" stroke-width="1" stroke-opacity="1" x="303" y="1" width="210" height="18" />
	<rect fill="none" stroke="black" stroke-width="1" stroke-opacity="1" x="303" y="20" width="527" height="156" />
	<text font-family="Helvetica" font-size="7" fill="#000000" xml:space="preserve" text-anchor="middle" x="567" y="29">VIEW</text>
</g>
<g>
	<rect fill="none" stroke="black" stroke-width="1" stroke-opacity="1" x="304" y="450" width="207" height="18" />
	<rect fill="none" stroke="black" stroke-width="1" stroke-opacity="1" x="304" y="469" width="521" height="230" />
	<text font-family="Helvetica" font-size="7" fill="#000000" xml:space="preserve" text-anchor="middle" x="565" y="478">MODEL</text>
</g>
<g>
	<ellipse fill="none" stroke="black" stroke-width="1" stroke-opacity="1" cx="911" cy="562" rx="5" ry="5" />
	<line stroke="black" stroke-opacity="1" x1="902" y1="571" x2="920" y2="571" />
	<line stroke="black" stroke-opacity="1" x1="911" y1="567" x2="911" y2="579" />
	<line stroke="black" stroke-opacity="1" x1="911" y1="579" x2="903" y2="589" />
	<line stroke="black" stroke-opacity="1" x1="911" y1="579" x2="919" y2="589" />
	<text font-family="Helvetica" font-size="7" fill="#000000" xml:space="preserve" font-style="italic" text-anchor="middle" x="913" y="598">Adatbázis</text>
</g>
<g>
	<ellipse fill="none" stroke="black" stroke-width="1" stroke-opacity="1" cx="179" cy="293" rx="5" ry="5" />
	<line stroke="black" stroke-opacity="1" x1="170" y1="302" x2="188" y2="302" />
	<line stroke="black" stroke-opacity="1" x1="179" y1="298" x2="179" y2="310" />
	<line stroke="black" stroke-opacity="1" x1="179" y1="310" x2="171" y2="320" />
	<line stroke="black" stroke-opacity="1" x1="179" y1="310" x2="187" y2="320" />
	<text font-family="Helvetica" font-size="7" fill="#000000" xml:space="preserve" text-anchor="middle" x="181" y="329">Felhasználó</text>
</g>
<g>
	<ellipse fill="none" stroke="black" stroke-width="1" stroke-opacity="1" cx="917" cy="86" rx="5" ry="5" />
	<line stroke="black" stroke-opacity="1" x1="908" y1="95" x2="926" y2="95" />
	<line stroke="black" stroke-opacity="1" x1="917" y1="91" x2="917" y2="103" />
	<line stroke="black" stroke-opacity="1" x1="917" y1="103" x2="909" y2="113" />
	<line stroke="black" stroke-opacity="1" x1="917" y1="103" x2="925" y2="113" />
	<text font-family="Helvetica" font-size="7" fill="#000000" xml:space="preserve" text-anchor="middle" x="919" y="122">Felhasználó</text>
</g>
<g>
	<text font-family="Helvetica" font-size="7" fill="#000000" xml:space="preserve" x="482" y="626">&lt;&lt;include&gt;&gt;</text>
</g>
<g>
	<text font-family="Helvetica" font-size="7" fill="#000000" xml:space="preserve" x="434" y="107">&lt;&lt;include&gt;&gt;</text>
</g>
<g>
	<text font-family="Helvetica" font-size="7" fill="#000000" xml:space="preserve" x="663" y="68">&lt;&lt;include&gt;&gt;</text>
</g>
<g>
	<text font-family="Helvetica" font-size="7" fill="#000000" xml:space="preserve" x="446" y="352">&lt;&lt;include&gt;&gt;</text>
</g>
<g>
	<text font-family="Helvetica" font-size="7" fill="#000000" xml:space="preserve" x="503" y="568">&lt;&lt;include&gt;&gt;</text>
</g>
<g>
	<text font-family="Helvetica" font-size="7" fill="#000000" xml:space="preserve" x="605" y="302">&lt;&lt;include&gt;&gt;</text>
</g>
<g>
	<text font-family="Helvetica" font-size="7" fill="#000000" xml:space="preserve" x="482" y="587">&lt;&lt;include&gt;&gt;</text>
</g>
<g>
	<text font-family="Helvetica" font-size="7" fill="#000000" xml:space="preserve" x="481" y="533">&lt;&lt;include&gt;&gt;</text>
</g>
<g>
	<text font-family="Helvetica" font-size="7" fill="#000000" xml:space="preserve" x="495" y="73">&lt;&lt;include&gt;&gt;</text>
</g>
<g>
	<text font-family="Helvetica" font-size="7" fill="#000000" xml:space="preserve" x="468" y="294">&lt;&lt;include&gt;&gt;</text>
</g>
<g>
	<ellipse fill="#cbcbcb" stroke="none" cx="368" cy="532" rx="26" ry="12" />
	<ellipse fill="#ffffc0" stroke="black" stroke-width="1" stroke-opacity="1" cx="366" cy="530" rx="26" ry="12" />
</g>
<g>
	<ellipse fill="#cbcbcb" stroke="none" cx="558" cy="313" rx="26" ry="12" />
	<ellipse fill="#ffffc0" stroke="black" stroke-width="1" stroke-opacity="1" cx="556" cy="311" rx="26" ry="12" />
</g>
<g>
	<ellipse fill="#cbcbcb" stroke="none" cx="443" cy="240" rx="26" ry="12" />
	<ellipse fill="#ffffc0" stroke="black" stroke-width="1" stroke-opacity="1" cx="441" cy="238" rx="26" ry="12" />
</g>
<g>
	<ellipse fill="#cbcbcb" stroke="none" cx="440" cy="127" rx="26" ry="12" />
	<ellipse fill="#ffffc0" stroke="black" stroke-width="1" stroke-opacity="1" cx="438" cy="125" rx="26" ry="12" />
</g>
<g>
	<ellipse fill="#cbcbcb" stroke="none" cx="732" cy="283" rx="26" ry="12" />
	<ellipse fill="#ffffc0" stroke="black" stroke-width="1" stroke-opacity="1" cx="730" cy="281" rx="26" ry="12" />
</g>
<g>
	<ellipse fill="#cbcbcb" stroke="none" cx="720" cy="518" rx="26" ry="12" />
	<ellipse fill="#ffffc0" stroke="black" stroke-width="1" stroke-opacity="1" cx="718" cy="516" rx="26" ry="12" />
</g>
<g>
	<ellipse fill="#cbcbcb" stroke="none" cx="419" cy="382" rx="26" ry="12" />
	<ellipse fill="#ffffc0" stroke="black" stroke-width="1" stroke-opacity="1" cx="417" cy="380" rx="26" ry="12" />
</g>
<g>
	<ellipse fill="#cbcbcb" stroke="none" cx="796" cy="35" rx="26" ry="12" />
	<ellipse fill="#ffffc0" stroke="black" stroke-width="1" stroke-opacity="1" cx="794" cy="33" rx="26" ry="12" />
</g>
<g>
	<ellipse fill="#cbcbcb" stroke="none" cx="460" cy="41" rx="26" ry="12" />
	<ellipse fill="#ffffc0" stroke="black" stroke-width="1" stroke-opacity="1" cx="458" cy="39" rx="26" ry="12" />
</g>
<g>
	<ellipse fill="#cbcbcb" stroke="none" cx="610" cy="93" rx="26" ry="12" />
	<ellipse fill="#ffffc0" stroke="black" stroke-width="1" stroke-opacity="1" cx="608" cy="91" rx="26" ry="12" />
</g>
<g>
	<ellipse fill="#cbcbcb" stroke="none" cx="366" cy="610" rx="26" ry="12" />
	<ellipse fill="#ffffc0" stroke="black" stroke-width="1" stroke-opacity="1" cx="364" cy="608" rx="26" ry="12" />
</g>
<g>
	<ellipse fill="#cbcbcb" stroke="none" cx="677" cy="632" rx="26" ry="12" />
	<ellipse fill="#ffffc0" stroke="black" stroke-width="1" stroke-opacity="1" cx="675" cy="630" rx="26" ry="12" />
</g>
<g>
	<text font-family="Helvetica" font-size="7" fill="#000000" xml:space="preserve" x="506" y="333">Kérés feldolgozás</text>
</g>
<g>
	<text font-family="Helvetica" font-size="7" fill="#000000" xml:space="preserve" x="683" y="539">Rendelések</text>
</g>
<g>
	<text font-family="Helvetica" font-size="7" fill="#000000" xml:space="preserve" x="700" y="306">Fájlfeltöltés</text>
</g>
<g>
	<text font-family="Helvetica" font-size="7" fill="#000000" xml:space="preserve" x="777" y="54">Login</text>
</g>
<g>
	<text font-family="Helvetica" font-size="7" fill="#000000" xml:space="preserve" x="577" y="114">Renderelés</text>
</g>
<g>
	<text font-family="Helvetica" font-size="7" fill="#000000" xml:space="preserve" x="435" y="63">Kártyák</text>
</g>
<g>
	<text font-family="Helvetica" font-size="7" fill="#000000" xml:space="preserve" x="366" y="403">be és kijelentkezés</text>
</g>
<g>
	<text font-family="Helvetica" font-size="7" fill="#000000" xml:space="preserve" x="337" y="553">Hozzáadás</text>
</g>
<g>
	<text font-family="Helvetica" font-size="7" fill="#000000" xml:space="preserve" x="414" y="148">Munkalap</text>
</g>
<g>
	<text font-family="Helvetica" font-size="7" fill="#000000" xml:space="preserve" x="408" y="260">Json válasz</text>
</g>
<g>
	<text font-family="Helvetica" font-size="7" fill="#000000" xml:space="preserve" x="332" y="629">Szerkesztés</text>
</g>
<g>
	<text font-family="Helvetica" font-size="7" fill="#000000" xml:space="preserve" x="640" y="655">Folyamatok</text>
</g>
<g>
	<line stroke="black" stroke-opacity="1" x1="560" y1="325" x2="695" y2="617" />
</g>
<g>
	<line stroke="black" stroke-opacity="1" x1="635" y1="93" x2="877" y2="105" />
</g>
<g>
	<line stroke="black" stroke-opacity="1" x1="558" y1="298" x2="603" y2="105" />
</g>
<g>
	<line stroke="black" stroke-opacity="1" x1="222" y1="314" x2="529" y2="312" />
</g>
<g>
	<line stroke="black" stroke-opacity="1" x1="567" y1="325" x2="738" y2="503" />
</g>
<g>
	<line stroke="black" stroke-opacity="1" x1="648" y1="628" x2="642" y2="621" />
	<line stroke="black" stroke-opacity="1" x1="648" y1="628" x2="641" y2="633" />
	<line stroke-dasharray="4,4" stroke="black" stroke-opacity="1" x1="391" y1="610" x2="648" y2="628" />
</g>
<g>
	<line stroke="black" stroke-opacity="1" x1="583" y1="305" x2="589" y2="309" />
	<line stroke="black" stroke-opacity="1" x1="583" y1="305" x2="587" y2="298" />
	<line stroke-dasharray="4,4" stroke="black" stroke-opacity="1" x1="703" y1="285" x2="583" y2="305" />
</g>
<g>
	<line stroke="black" stroke-opacity="1" x1="529" y1="323" x2="520" y2="320" />
	<line stroke="black" stroke-opacity="1" x1="529" y1="323" x2="526" y2="331" />
	<line stroke-dasharray="4,4" stroke="black" stroke-opacity="1" x1="440" y1="367" x2="529" y2="323" />
</g>
<g>
	<line stroke="black" stroke-opacity="1" x1="535" y1="298" x2="533" y2="289" />
	<line stroke="black" stroke-opacity="1" x1="535" y1="298" x2="526" y2="299" />
	<line stroke-dasharray="4,4" stroke="black" stroke-opacity="1" x1="462" y1="252" x2="535" y2="298" />
</g>
<g>
	<line stroke="black" stroke-opacity="1" x1="648" y1="622" x2="644" y2="614" />
	<line stroke="black" stroke-opacity="1" x1="648" y1="622" x2="640" y2="625" />
	<line stroke-dasharray="4,4" stroke="black" stroke-opacity="1" x1="393" y1="539" x2="648" y2="622" />
</g>
<g>
	<line stroke="black" stroke-opacity="1" x1="581" y1="82" x2="577" y2="74" />
	<line stroke="black" stroke-opacity="1" x1="581" y1="82" x2="573" y2="85" />
	<line stroke-dasharray="4,4" stroke="black" stroke-opacity="1" x1="485" y1="49" x2="581" y2="82" />
</g>
<g>
	<line stroke="black" stroke-opacity="1" x1="581" y1="95" x2="573" y2="90" />
	<line stroke="black" stroke-opacity="1" x1="581" y1="95" x2="576" y2="102" />
	<line stroke-dasharray="4,4" stroke="black" stroke-opacity="1" x1="465" y1="119" x2="581" y2="95" />
</g>
<g>
	<line stroke="black" stroke-opacity="1" x1="635" y1="82" x2="642" y2="85" />
	<line stroke="black" stroke-opacity="1" x1="635" y1="82" x2="638" y2="74" />
	<line stroke-dasharray="4,4" stroke="black" stroke-opacity="1" x1="767" y1="41" x2="635" y2="82" />
</g>
<g>
	<line stroke="black" stroke-opacity="1" x1="691" y1="517" x2="684" y2="511" />
	<line stroke="black" stroke-opacity="1" x1="691" y1="517" x2="685" y2="523" />
	<line stroke-dasharray="4,4" stroke="black" stroke-opacity="1" x1="393" y1="529" x2="691" y2="517" />
</g>
<g>
	<line stroke="black" stroke-opacity="1" x1="691" y1="523" x2="683" y2="518" />
	<line stroke="black" stroke-opacity="1" x1="691" y1="523" x2="686" y2="530" />
	<line stroke-dasharray="4,4" stroke="black" stroke-opacity="1" x1="391" y1="600" x2="691" y2="523" />
</g>
<g>
	<line stroke="black" stroke-opacity="1" x1="702" y1="625" x2="878" y2="590" />
</g>
<g>
	<line stroke="black" stroke-opacity="1" x1="745" y1="526" x2="878" y2="571" />
</g>
</svg>
